# xmcd
#
# Track frame offsets:
#	150
#	27652
#	61429
#	89799
#	116336
#	154094
#	169379
#
# Disc length: 2914 seconds
#
# Revision: 0
# Processed by: cddbd v1.5.1PL0 Copyright (c) Steve Scherf et al.
# Submitted via: audiograbber 1.83.01
#
DISCID=5f0b6007
DTITLE=Allman Brothers Band - Verizon Wireless Arena, Manchester, NH, 7.9.05 - 
DTITLE=Disc Two
DYEAR=2005
DGENRE=Blues
TTITLE0=Why Does Love Got To Be So Sad
TTITLE1=Franklin's Tower
TTITLE2=Stand Back
TTITLE3=Statesboro Blues
TTITLE4=I've Got Dreams To Remember
TTITLE5=Midnight Rider
TTITLE6=Dreams
EXTD=
EXTT0=
EXTT1=
EXTT2=
EXTT3=
EXTT4=
EXTT5=
EXTT6=
PLAYORDER=
